<svg width="35" height="36" viewBox="0 0 35 36" fill="none" xmlns="http://www.w3.org/2000/svg">
<path fill-rule="evenodd" clip-rule="evenodd" d="M8.2758 10.3069C8.72213 9.78024 9.5109 9.71511 10.0376 10.1614L18.4319 17.2753L26.8263 24.3891C27.353 24.8354 27.4181 25.6242 26.9718 26.1509C26.5255 26.6775 25.7367 26.7427 25.21 26.2963L17.8255 20.0383L12.0003 27.7688C11.5848 28.3202 10.8011 28.4303 10.2497 28.0149C9.69836 27.5994 9.5882 26.8157 10.0037 26.2643L15.9151 18.4194L8.42127 12.0687C7.8946 11.6224 7.82947 10.8336 8.2758 10.3069ZM24.9979 8.4429C25.5492 8.85836 25.6594 9.64211 25.2439 10.1935L20.8294 16.0519C20.4139 16.6033 19.6302 16.7134 19.0788 16.298C18.5275 15.8825 18.4173 15.0988 18.8328 14.5474L23.2473 8.68895C23.6628 8.1376 24.4465 8.02744 24.9979 8.4429Z" fill="black"/>
</svg>
