<svg width="41" height="42" viewBox="0 0 41 42" fill="none" xmlns="http://www.w3.org/2000/svg">
<path d="M40.9101 20.452C40.8074 16.7187 39.6847 13.0847 37.6638 9.944C35.6429 6.80329 32.8008 4.27568 29.4457 2.63515C26.0906 0.994628 22.3504 0.303788 18.6306 0.63752C14.9108 0.971253 11.3534 2.31683 8.34384 4.52837C5.33432 6.73992 2.98757 9.73307 1.55799 13.1834C0.128412 16.6336 -0.329461 20.4094 0.23401 24.1014C0.79748 27.7934 2.3608 31.2607 4.75449 34.1274C7.14818 36.9942 10.2809 39.1511 13.8131 40.3642H13.8262C17.6692 41.6768 21.8155 41.8176 25.7387 40.7688C29.6619 39.72 33.1848 37.5289 35.8602 34.4738C35.9712 34.3465 36.0822 34.2176 36.1866 34.0886C39.3716 30.2713 41.0515 25.4215 40.9101 20.452ZM18.0322 12.1623C18.7814 11.9626 19.5533 11.8611 20.3287 11.8604C22.6248 11.8614 24.8289 12.7633 26.4672 14.3722C26.5831 14.4832 26.6859 14.5877 26.7806 14.6987C26.8752 14.8097 26.9438 14.8782 27.0237 14.9712C27.2434 15.2308 27.4472 15.5033 27.6342 15.7873C28.1826 16.6006 28.5898 17.5006 28.8387 18.4494C28.8403 18.464 28.8403 18.4788 28.8387 18.4934C28.8387 19.1169 25.829 20.7474 20.6665 22.1184C15.3767 23.5237 11.91 23.571 11.755 22.9851C11.5046 22.0489 11.4109 21.0777 11.4775 20.1109C11.5029 19.727 11.5541 19.3453 11.6309 18.9684C11.6473 18.89 11.6636 18.8052 11.6815 18.7333C11.7142 18.5848 11.7485 18.4526 11.7844 18.3237C12.2033 16.8437 12.9993 15.4978 14.0945 14.4178C15.1897 13.3377 16.5465 12.5606 18.0322 12.1623ZM11.1723 21.5945C11.1821 21.6924 11.1935 21.7904 11.2049 21.8899C11.2164 21.9895 11.2327 22.0858 11.249 22.1837C11.298 22.4791 11.36 22.7713 11.4367 23.0651C11.7387 24.1962 16.3544 23.6037 20.7579 22.4351C25.1615 21.2664 29.4605 19.4874 29.1619 18.3547C29.1325 18.2421 29.0998 18.1311 29.0656 18.0283C29.0443 17.9548 29.0199 17.8814 28.9954 17.8112L28.9513 17.6773C28.917 17.5827 28.8828 17.4896 28.8452 17.3966C28.8452 17.3819 28.8338 17.3656 28.8273 17.3493C28.7946 17.2644 28.762 17.1861 28.7244 17.0963C28.7098 17.062 28.6951 17.0245 28.6787 16.9902C28.5922 16.7944 28.4976 16.6018 28.398 16.4124C28.3507 16.3243 28.3034 16.2378 28.2544 16.1529L28.2446 16.1366C28.2022 16.0631 28.1597 15.9913 28.1157 15.9195C28.101 15.8967 28.0863 15.8755 28.0732 15.8526C30.8773 15.802 32.6873 16.3178 32.9354 17.2481C33.425 19.0843 28.0618 22.1723 21.2296 23.9872C14.3974 25.8022 8.21159 25.7826 7.72194 23.9432C7.48038 23.0308 8.75183 21.7104 11.1348 20.3883V20.3981C11.1348 20.4977 11.1348 20.5973 11.1348 20.6968C11.1321 20.9965 11.1446 21.2961 11.1723 21.5945ZM9.69847 8.37409C10.2648 9.67981 10.7251 10.1433 12.0357 10.7097C10.73 11.2761 10.2648 11.7347 9.69847 13.0453C9.13375 11.7396 8.67348 11.2761 7.36287 10.7097C8.67348 10.1466 9.13701 9.68797 9.69847 8.37409ZM9.42917 33.7801C9.05867 32.9249 8.75836 32.6246 7.90311 32.2541C8.75836 31.8836 9.05867 31.5849 9.42917 30.728C9.79803 31.5849 10.0984 31.8836 10.9552 32.2541C10.0984 32.6246 9.79803 32.9249 9.42917 33.7801ZM4.61759 25.3191C4.15569 23.5792 6.70674 21.1636 11.2931 18.9798C11.23 19.3106 11.1847 19.6446 11.1576 19.9803C8.43519 21.4492 7.10336 22.8888 7.40367 24.015C7.69419 25.1085 9.52547 25.6618 12.2348 25.6618C13.6318 25.6488 15.0261 25.5348 16.4066 25.3207C18.0622 25.0719 19.7024 24.7297 21.3194 24.2957C28.5661 22.3681 33.8119 19.2279 33.2602 17.1469C32.955 16.0044 31.0405 15.4217 27.8627 15.5147C27.6828 15.2501 27.4877 14.9962 27.2784 14.7542L27.2522 14.7199C32.3935 14.3135 35.8569 15.141 36.3237 16.9004C36.3597 17.0335 36.3778 17.1707 36.3776 17.3085C36.3776 18.9716 33.9408 21.162 29.8343 23.1483C27.2498 24.3725 24.5557 25.3506 21.7878 26.0699C19.2907 26.7421 16.7424 27.2077 14.1689 27.4621C8.83996 27.9468 5.09255 27.1079 4.61759 25.3191ZM35.6284 34.1702C32.9887 37.1828 29.5173 39.3478 25.6506 40.3933C21.784 41.4387 17.6946 41.3179 13.8964 40.046L14.337 27.7706C16.8802 27.5127 19.3986 27.051 21.8678 26.3898C24.6052 25.6739 27.2717 24.7102 29.8343 23.5107L35.8733 33.8764C35.7982 33.9744 35.7182 34.0723 35.6333 34.1702H35.6284ZM37.4058 22.7452C37.0925 22.0205 36.8379 21.7659 36.1132 21.4525C36.8379 21.1408 37.0925 20.8862 37.4058 20.1615C37.7176 20.8862 37.9722 21.1408 38.6969 21.4525C37.9771 21.7577 37.7225 22.0172 37.4107 22.737L37.4058 22.7452Z" fill="white"/>
</svg>
