<svg width="33" height="32" viewBox="0 0 33 32" fill="none" xmlns="http://www.w3.org/2000/svg">
<path fill-rule="evenodd" clip-rule="evenodd" d="M16.4999 5C10.4248 5 5.49991 9.92487 5.49991 16C5.49991 16.7751 5.57993 17.5304 5.7318 18.2586C6.18403 20.4266 7.27487 22.3604 8.79852 23.8543C9.82347 23.6218 10.9516 23.2842 12.1547 22.8416C12.6731 22.651 13.2478 22.9166 13.4385 23.4349C13.6291 23.9533 13.3635 24.528 12.8452 24.7187C12.1424 24.9772 11.4541 25.2055 10.7861 25.4014C12.4516 26.4157 14.4077 27 16.4999 27C22.575 27 27.4999 22.0751 27.4999 16C27.4999 15.9177 27.499 15.8356 27.4972 15.7537C25.46 17.6971 22.7642 19.6964 19.6665 21.4848C19.2118 21.7474 18.7578 21.9999 18.3057 22.2423C17.819 22.5032 17.2129 22.3202 16.9519 21.8334C16.691 21.3466 16.8741 20.7405 17.3608 20.4796C17.7943 20.2472 18.23 20.0048 18.6665 19.7528C22.2497 17.6841 25.2092 15.3586 27.1549 13.2551C26.6065 11.1194 25.4319 9.23287 23.8362 7.8036C21.8891 6.05947 19.3194 5 16.4999 5ZM29.3183 13.8235C29.4378 14.5318 29.4999 15.259 29.4999 16C29.4999 23.1797 23.6796 29 16.4999 29C13.3477 29 10.4581 27.8783 8.20782 26.0125C7.47856 26.1392 6.7907 26.2143 6.15462 26.234C4.37448 26.2889 2.59291 25.9124 1.77744 24.5C1.19655 23.4939 1.32706 22.3195 1.75164 21.2381C2.13539 20.2608 2.80717 19.2238 3.68147 18.1765C3.56201 17.4682 3.49991 16.741 3.49991 16C3.49991 8.8203 9.32021 3 16.4999 3C19.6509 3 22.542 4.12225 24.792 5.98752C26.1364 5.7538 27.3707 5.69036 28.4092 5.84656C29.5584 6.0194 30.6412 6.49355 31.2223 7.50001C31.8032 8.50614 31.6727 9.68052 31.2481 10.7619C30.8644 11.7392 30.1926 12.7762 29.3183 13.8235ZM26.5727 7.78118C27.1623 7.74311 27.6776 7.75902 28.1118 7.82431C28.9708 7.95351 29.3425 8.24402 29.4903 8.50001C29.638 8.75591 29.7038 9.22281 29.3865 10.0309C29.2263 10.4389 28.9829 10.8924 28.656 11.3832C28.1556 10.0664 27.4477 8.85246 26.5727 7.78118ZM4.34387 20.6167C4.01685 21.1075 3.77348 21.5611 3.61328 21.9691C3.29598 22.7772 3.36175 23.2441 3.50949 23.5C3.72488 23.8731 4.42553 24.2864 6.0929 24.2349C6.20193 24.2315 6.31343 24.2262 6.42733 24.2188C5.5519 23.1471 4.84409 21.9331 4.34387 20.6167Z" fill="#22272F"/>
</svg>
