<svg width="33" height="32" viewBox="0 0 33 32" fill="none" xmlns="http://www.w3.org/2000/svg">
<path fill-rule="evenodd" clip-rule="evenodd" d="M16.4998 1.66699C11.3714 1.66699 6.95599 5.28677 5.95024 10.3155L4.27852 18.6741C3.74155 21.359 5.16676 24.0578 7.65651 25.1643C8.56561 25.5684 9.4987 25.9067 10.448 26.1794L10.5865 26.491C11.6251 28.8279 13.9426 30.334 16.4999 30.334C19.0572 30.334 21.3747 28.8279 22.4133 26.491L22.5518 26.1793C23.501 25.9066 24.434 25.5683 25.343 25.1643C27.8327 24.0578 29.2579 21.359 28.721 18.6741L28.2803 16.4709C28.172 15.9293 27.6452 15.5781 27.1036 15.6864C26.5621 15.7947 26.2109 16.3215 26.3192 16.8631L26.7598 19.0664C27.1106 20.8205 26.1776 22.6047 24.5307 23.3367C23.6057 23.7478 22.6529 24.084 21.6825 24.3453C21.6126 24.356 21.5441 24.3741 21.4782 24.3991C18.2227 25.2383 14.7777 25.2384 11.5222 24.3993C11.4559 24.3741 11.387 24.3559 11.3166 24.3452C10.3463 24.0839 9.39369 23.7478 8.46879 23.3367C6.82187 22.6047 5.88886 20.8205 6.23968 19.0664L7.9114 10.7078C8.73018 6.61385 12.3248 3.66699 16.4998 3.66699C20.5169 3.66699 23.9969 6.39544 24.9834 10.2484C25.1204 10.7834 25.6652 11.1061 26.2002 10.9691C26.7353 10.8321 27.0579 10.2873 26.9209 9.75229C25.7089 5.01847 21.4345 1.66699 16.4998 1.66699ZM13.0979 26.7645C13.934 27.7445 15.17 28.334 16.4999 28.334C17.8298 28.334 19.0658 27.7445 19.9019 26.7644C17.6501 27.1166 15.3498 27.1166 13.0979 26.7645Z" fill="#22272F"/>
</svg>
