<svg width="33" height="32" viewBox="0 0 33 32" fill="none" xmlns="http://www.w3.org/2000/svg">
<path fill-rule="evenodd" clip-rule="evenodd" d="M3.5 8C3.5 7.44772 3.94772 7 4.5 7H28.5C29.0523 7 29.5 7.44772 29.5 8C29.5 8.55228 29.0523 9 28.5 9H4.5C3.94772 9 3.5 8.55228 3.5 8ZM3.5 16C3.5 15.4477 3.94772 15 4.5 15H17.8333C18.3856 15 18.8333 15.4477 18.8333 16C18.8333 16.5523 18.3856 17 17.8333 17H4.5C3.94772 17 3.5 16.5523 3.5 16ZM22.1667 16C22.1667 15.4477 22.6144 15 23.1667 15H28.5C29.0523 15 29.5 15.4477 29.5 16C29.5 16.5523 29.0523 17 28.5 17H23.1667C22.6144 17 22.1667 16.5523 22.1667 16ZM4.5 23C3.94772 23 3.5 23.4477 3.5 24C3.5 24.5523 3.94772 25 4.5 25H9.83333C10.3856 25 10.8333 24.5523 10.8333 24C10.8333 23.4477 10.3856 23 9.83333 23H4.5ZM15.1667 23C14.6144 23 14.1667 23.4477 14.1667 24C14.1667 24.5523 14.6144 25 15.1667 25H16.5H28.5C29.0523 25 29.5 24.5523 29.5 24C29.5 23.4477 29.0523 23 28.5 23H16.5H15.1667Z" fill="#22272F"/>
</svg>
