<svg width="37" height="40" viewBox="0 0 37 40" fill="none" xmlns="http://www.w3.org/2000/svg">
<path d="M23.4729 0C21.9247 0.393719 20.2941 1.32007 19.352 2.4026C18.4096 3.48521 17.7312 4.91186 17.4223 6.69351C8.37884 2.52625 -0.424429 9.45793 0.0158521 19.7339C0.455811 30.0116 7.97951 44.4384 18.3596 38.5377C28.8689 44.6029 35.5857 30.4132 36.8546 21.3728C38.124 12.3324 30.9705 2.01895 19.7789 6.84669C20.0432 5.58551 20.4558 4.74107 21.1434 3.94433C21.8307 3.14759 22.9894 2.51141 24.3683 1.97228C24.2948 1.02983 23.9548 0.364521 23.4727 0.000238114L23.4729 0ZM14.8452 15.984C16.4208 15.984 17.7846 17.1896 18.3597 18.5671C18.9347 17.1897 20.2847 15.984 21.8603 15.984C23.826 15.984 25.7169 17.6227 25.7329 19.7336C25.7679 24.267 20.9136 24.7401 18.3597 29.9963C15.8054 24.7399 10.9376 24.2669 10.9723 19.7336C10.9886 17.6227 12.8796 15.984 14.8449 15.984H14.8452Z" fill="#111111"/>
</svg>
