<svg width="39" height="41" viewBox="0 0 39 41" fill="none" xmlns="http://www.w3.org/2000/svg">
<path d="M19.3699 15.2787C19.3699 14.7609 19.0232 14.2862 18.5033 14.1567C14.9066 13.2936 12.1333 10.4881 11.2234 6.9063C11.0934 6.38849 10.66 6.04321 10.0968 6.04321C9.57688 6.04321 9.10019 6.38852 8.97019 6.9063C8.10359 10.4884 5.33022 13.2936 1.73342 14.1567C1.21351 14.2862 0.866821 14.7179 0.866821 15.2787C0.866821 15.7966 1.21353 16.2713 1.73342 16.4008C5.28696 17.2639 8.14677 20.1124 9.01337 23.6512C9.14335 24.169 9.5768 24.5143 10.14 24.5143C10.6599 24.5143 11.1366 24.169 11.2666 23.6512C12.1332 20.1121 14.9933 17.2639 18.5465 16.4438C19.0232 16.2713 19.3699 15.7965 19.3699 15.2787Z" fill="#111111"/>
<path d="M38.0043 29.3479C33.9309 28.3553 30.7676 25.2045 29.8142 21.1478C29.6842 20.5867 29.1643 20.1553 28.5577 20.1553C27.951 20.1553 27.4311 20.5436 27.3012 21.1478C26.3046 25.2048 23.1845 28.3552 19.111 29.3479C18.5476 29.4773 18.1144 29.9951 18.1144 30.5993C18.1144 31.2035 18.5044 31.7213 19.111 31.8507C23.1409 32.8002 26.3478 36.0371 27.3012 40.0076C27.4311 40.5688 27.951 41.0002 28.5577 41.0002C29.1643 41.0002 29.6843 40.6118 29.8142 40.0076C30.7676 36.0374 33.9741 32.8005 38.0043 31.8507C38.5678 31.7213 39.0009 31.2035 39.0009 30.5993C38.9577 29.9948 38.5675 29.477 38.0043 29.3476V29.3479Z" fill="#111111"/>
</svg>
