<svg width="36" height="54" viewBox="0 0 36 54" fill="none" xmlns="http://www.w3.org/2000/svg">
<path d="M35.9996 18.0853C35.9996 8.08051 27.957 0 17.9998 0C8.04233 0.000536786 0 8.08078 0 18.0853C0 23.5496 2.37431 28.3976 6.20405 31.7071L5.36148 51.3315V51.4082C5.36148 52.4089 5.97431 53.3322 6.89324 53.7938C7.81222 54.1787 8.80812 54.0247 9.57434 53.3321L18.0001 46.0212L26.4258 53.3321C26.8853 53.7938 27.4981 53.9479 28.1109 53.9479C28.417 53.9479 28.8001 53.8711 29.1068 53.717C30.0257 53.3321 30.6385 52.4088 30.6385 51.3315L29.7959 31.6301C33.6251 28.3974 36 23.5493 36 18.0851L35.9996 18.0853ZM17.9998 32.3226C10.187 32.3226 3.82975 25.935 3.82975 18.0853C3.82975 10.2359 10.1871 3.84793 17.9998 3.84793C25.8125 3.84793 32.1699 10.2355 32.1699 18.0853C32.1699 25.9346 25.8125 32.3226 17.9998 32.3226Z" fill="#111111"/>
</svg>
