<svg width="36" height="52" viewBox="0 0 36 52" fill="none" xmlns="http://www.w3.org/2000/svg">
<path d="M18 10.7282C7.91115 10.7282 0 14.6671 0 19.7003V43.0278C0 48.061 7.91115 51.9999 18 51.9999C28.0888 51.9999 36 48.061 36 43.0278V19.7003C36 14.6671 28.0888 10.7282 18 10.7282ZM23.535 41.7901H23.193C22.833 41.7901 22.4642 41.8438 22.0592 41.8438H22.0588C21.3051 41.855 20.551 41.825 19.8 41.7541L18.3238 41.5566C15.9794 41.1629 13.6638 40.6113 11.3938 39.906L8.54999 42.1309C8.22696 42.3488 7.79985 42.3344 7.49251 42.0953C7.18474 41.8562 7.06662 41.4468 7.20001 41.0811L8.05501 39.3676L6.79501 37.9233V37.9229C6.51938 37.6084 6.49809 37.1462 6.74318 36.8078C6.98787 36.4693 7.43506 36.3439 7.82112 36.5054L11.1149 37.8873C12.5638 36.9272 17.523 33.8586 22.4457 33.2306C24.2457 33.0063 27.1526 34.2892 28.4757 35.3122C28.9747 35.6194 29.3283 36.1145 29.4564 36.6849C29.6995 38.4257 25.4514 41.5391 23.5345 41.7902L23.535 41.7901ZM18 26.878C9.21621 26.878 1.8 23.5944 1.8 19.7003C1.8 15.8062 9.21621 12.5227 18 12.5227C26.7838 12.5227 34.2 15.8062 34.2 19.7003C34.2 23.5944 26.7838 26.878 18 26.878Z" fill="#111111"/>
<path d="M18.2696 8.93398C17.9365 8.93438 17.6304 8.75134 17.4737 8.45814C17.3174 8.16494 17.3359 7.80967 17.5227 7.5345C17.7288 7.24411 17.8333 6.89404 17.8196 6.53836C17.8268 6.0457 17.6356 5.57066 17.2885 5.21941C16.6994 4.55371 16.3788 3.69375 16.3885 2.80617C16.3764 1.91537 16.6974 1.05185 17.2885 0.383709C17.4295 0.182642 17.6464 0.0476602 17.8899 0.010408C18.133 -0.0268421 18.3805 0.0368434 18.5758 0.186241C18.9571 0.475429 19.0439 1.01216 18.7735 1.40624L18.7196 1.47794V1.47834C18.3656 1.83722 18.1672 2.32067 18.1672 2.82415C18.1672 3.32764 18.3656 3.81068 18.7196 4.16997C19.3086 4.83566 19.6293 5.69563 19.6196 6.5832C19.6341 7.29656 19.4231 7.99669 19.0165 8.58393C18.8389 8.81424 18.5609 8.94481 18.2696 8.93401L18.2696 8.93398Z" fill="#111111"/>
<path d="M9.26962 8.93398C8.93654 8.93438 8.63038 8.75134 8.47368 8.45814C8.31739 8.16494 8.33587 7.80967 8.5227 7.5345C8.72881 7.24411 8.83327 6.89404 8.81962 6.53836C8.82685 6.0457 8.63559 5.57066 8.28845 5.21941C7.69943 4.55371 7.3788 3.69375 7.38845 2.80617C7.3764 1.91537 7.69742 1.05185 8.28845 0.383709C8.42948 0.182642 8.64644 0.0476602 8.88993 0.010408C9.13301 -0.0268421 9.38051 0.0368434 9.57578 0.186241C9.95707 0.475429 10.0439 1.01216 9.77346 1.40624L9.71962 1.47794V1.47834C9.36565 1.83722 9.16717 2.32067 9.16717 2.82415C9.16717 3.32764 9.36565 3.81068 9.71962 4.16997C10.3086 4.83566 10.6293 5.69563 10.6196 6.5832C10.6341 7.29656 10.4231 7.99669 10.0165 8.58393C9.83895 8.81424 9.56091 8.94481 9.26962 8.93401L9.26962 8.93398Z" fill="#111111"/>
<path d="M28.1704 8.93398C27.8374 8.93438 27.5312 8.75134 27.3745 8.45814C27.2182 8.16494 27.2367 7.80967 27.4235 7.5345C27.6296 7.24411 27.7341 6.89404 27.7204 6.53836C27.7277 6.0457 27.5364 5.57066 27.1893 5.21941C26.6002 4.55371 26.2796 3.69375 26.2893 2.80617C26.2772 1.91537 26.5982 1.05185 27.1893 0.383709C27.3303 0.182642 27.5473 0.0476602 27.7907 0.010408C28.0338 -0.0268421 28.2813 0.0368434 28.4766 0.186241C28.8579 0.475429 28.9447 1.01216 28.6743 1.40624L28.6204 1.47794V1.47834C28.2665 1.83722 28.068 2.32067 28.068 2.82415C28.068 3.32764 28.2665 3.81068 28.6204 4.16997C29.2095 4.83566 29.5301 5.69563 29.5204 6.5832C29.5349 7.29656 29.324 7.99669 28.9174 8.58393C28.7398 8.81424 28.4617 8.94481 28.1704 8.93401V8.93398Z" fill="#111111"/>
<rect x="6.09412" y="33.0688" width="23.4514" height="10.382" fill="#111111"/>
<path d="M21.2508 42.6273C22.2013 42.2367 23.5032 41.5583 24.8257 40.4483C25.8796 39.5438 26.6442 38.6188 27.1815 37.8788C26.5409 37.1182 25.7143 36.2343 24.6604 35.3504C23.3999 34.3226 22.1807 33.5826 21.1888 33.0687C21.5607 34.117 22.0153 35.7615 22.036 37.8171C22.036 39.8933 21.6021 41.5583 21.2508 42.6273Z" stroke="white" stroke-width="1.44757" stroke-miterlimit="10" stroke-linecap="round"/>
<path d="M21.9681 37.9076L10.0427 37.9076" stroke="white" stroke-width="1.44757" stroke-miterlimit="10" stroke-linecap="round"/>
<path d="M7.42631 40.0586C7.88193 39.8744 8.48252 39.5674 9.10383 39.0557C9.60087 38.6464 9.97365 38.2166 10.2222 37.8687C9.93223 37.5003 9.53874 37.1114 9.0417 36.7021C8.46181 36.2109 7.88193 35.8834 7.4056 35.6378C7.59199 36.129 7.79909 36.9067 7.79909 37.8482C7.79909 38.7897 7.59199 39.5674 7.42631 40.0586Z" stroke="white" stroke-width="1.44757" stroke-miterlimit="10" stroke-linecap="round"/>
<path d="M18.6498 42.6868C19.0291 41.7186 19.4716 40.1529 19.4505 38.2165C19.4294 35.9093 18.7762 34.1376 18.3126 33.1282" stroke="white" stroke-width="1.44757" stroke-miterlimit="10" stroke-linecap="round"/>
<path d="M16.3322 42.1494C16.6718 41.2867 17.0538 39.9105 17.0538 38.1851C17.0326 36.1516 16.4596 34.57 16.0351 33.6662" stroke="white" stroke-width="1.44757" stroke-miterlimit="10" stroke-linecap="round"/>
<path d="M14.0285 41.1937C14.2812 40.5141 14.597 39.4432 14.597 38.1046C14.597 36.5189 14.1338 35.2626 13.818 34.5624" stroke="white" stroke-width="1.44757" stroke-miterlimit="10" stroke-linecap="round"/>
<path d="M11.735 40.1182C11.8884 39.6637 12.0801 38.9406 12.0801 38.0523C12.0801 36.9781 11.7925 36.1518 11.6007 35.6973" stroke="white" stroke-width="1.44757" stroke-miterlimit="10" stroke-linecap="round"/>
</svg>
