<svg width="38" height="40" viewBox="0 0 38 40" fill="none" xmlns="http://www.w3.org/2000/svg">
<path d="M23.6523 0C22.0923 0.393719 20.4492 1.32007 19.4999 2.4026C18.5503 3.48521 17.8668 4.91186 17.5555 6.69351C8.44289 2.52625 -0.427674 9.45793 0.0159733 19.7339C0.459295 30.0116 8.04051 44.4384 18.4999 38.5377C29.0895 44.6029 35.8577 30.4132 37.1363 21.3728C38.4154 12.3324 31.2072 2.01895 19.9301 6.84669C20.1964 5.58551 20.6121 4.74107 21.305 3.94433C21.9976 3.14759 23.1651 2.51141 24.5546 1.97228C24.4805 1.02983 24.1379 0.364521 23.6521 0.000238114L23.6523 0ZM14.9587 15.984C16.5463 15.984 17.9206 17.1896 18.5 18.5671C19.0794 17.1897 20.4398 15.984 22.0274 15.984C24.0081 15.984 25.9135 17.6227 25.9296 19.7336C25.9649 24.267 21.0734 24.7401 18.5 29.9963C15.9262 24.7399 11.0212 24.2669 11.0562 19.7336C11.0726 17.6227 12.978 15.984 14.9584 15.984H14.9587Z" fill="#111111"/>
<rect x="9.16669" y="14.8812" width="16.9641" height="15.357" fill="#111111"/>
</svg>
