<svg width="41" height="48" viewBox="0 0 41 48" fill="none" xmlns="http://www.w3.org/2000/svg">
<path d="M18.4408 0C8.10488 0 0 4.12088 0 9.38661V33.7918C0 39.0575 8.10488 43.1784 18.4408 43.1784C28.7767 43.1784 36.8816 39.0575 36.8816 33.7918V9.38661C36.8816 4.12088 28.7767 0 18.4408 0ZM24.1113 32.497H23.761C23.3922 32.497 23.0143 32.5531 22.5994 32.5531H22.599C21.8268 32.5649 21.0542 32.5334 20.2848 32.4593L18.7725 32.2527C16.3707 31.8408 13.9984 31.2637 11.6728 30.5258L8.75936 32.8535C8.42842 33.0815 7.99085 33.0664 7.67599 32.8162C7.36068 32.5661 7.23967 32.1378 7.37632 31.7552L8.25226 29.9625L6.9614 28.4515V28.451C6.67903 28.1221 6.65722 27.6385 6.9083 27.2844C7.15898 26.9303 7.61713 26.7992 8.01264 26.968L11.3871 28.4138C12.8714 27.4093 17.9521 24.199 22.9953 23.542C24.8394 23.3073 27.8175 24.6495 29.173 25.7198C29.6842 26.0412 30.0464 26.5591 30.1777 27.1559C30.4268 28.9771 26.0746 32.2343 24.1108 32.497L24.1113 32.497ZM18.4408 16.8959C9.44189 16.8959 1.84408 13.4606 1.84408 9.38661C1.84408 5.31261 9.44189 1.87732 18.4408 1.87732C27.4397 1.87732 35.0375 5.31261 35.0375 9.38661C35.0375 13.4606 27.4397 16.8959 18.4408 16.8959Z" fill="black"/>
</svg>
