<svg width="42" height="44" viewBox="0 0 42 44" fill="none" xmlns="http://www.w3.org/2000/svg">
<path d="M19.9264 23.2505C19.9264 22.6948 19.5531 22.1854 18.9932 22.0464C15.1198 21.1202 12.1331 18.1094 11.1532 14.2655C11.0133 13.7098 10.5465 13.3392 9.93997 13.3392C9.38006 13.3392 8.8667 13.7098 8.7267 14.2655C7.79344 18.1097 4.80673 21.1202 0.933263 22.0464C0.373356 22.1853 0 22.6486 0 23.2505C0 23.8062 0.373381 24.3157 0.933263 24.4547C4.76015 25.3809 7.83994 28.4379 8.7732 32.2356C8.91318 32.7913 9.37998 33.1618 9.98647 33.1618C10.5464 33.1618 11.0597 32.7913 11.1997 32.2356C12.133 28.4375 15.2131 25.3809 19.0397 24.5008C19.553 24.3157 19.9264 23.8062 19.9264 23.2505Z" fill="black"/>
<path d="M33.7513 34.1485C30.3058 33.3119 27.6301 30.6561 26.8237 27.2367C26.7138 26.7637 26.274 26.4 25.7609 26.4C25.2477 26.4 24.8079 26.7274 24.698 27.2367C23.855 30.6563 21.2159 33.3118 17.7704 34.1485C17.2938 34.2576 16.9274 34.6941 16.9274 35.2034C16.9274 35.7127 17.2572 36.1491 17.7704 36.2582C21.1791 37.0585 23.8916 39.7869 24.698 43.1337C24.808 43.6067 25.2477 43.9703 25.7609 43.9703C26.274 43.9703 26.7138 43.643 26.8237 43.1337C27.6301 39.7872 30.3424 37.0588 33.7513 36.2582C34.2279 36.1491 34.5943 35.7126 34.5943 35.2034C34.5578 34.6938 34.2277 34.2574 33.7513 34.1483V34.1485Z" fill="black"/>
<path d="M17.6398 9.58755C20.9534 10.3749 23.6132 13.015 24.4065 16.3033C24.4999 16.7666 24.9664 17.0906 25.4332 17.0906C25.9465 17.0906 26.3664 16.7663 26.4599 16.3033C27.2532 13.0147 29.9133 10.3748 33.2265 9.58755C33.6933 9.49483 34.0667 9.03153 34.0667 8.56859C34.0667 8.0591 33.7399 7.64236 33.2734 7.54964C29.8664 6.71579 27.3 4.16832 26.4598 0.787332C26.3664 0.324039 25.8999 0 25.4331 0C24.9198 0 24.4999 0.32437 24.4065 0.787332C23.6132 4.16832 20.9998 6.71579 17.6398 7.54964C17.173 7.64236 16.8465 8.10534 16.8465 8.56859C16.8465 9.03157 17.173 9.49483 17.6398 9.58755H17.6398Z" fill="black"/>
</svg>
