<svg width="12" height="20" viewBox="0 0 12 20" fill="none" xmlns="http://www.w3.org/2000/svg">
<path d="M2.87477 0.902537L11.2998 9.30254C11.3998 9.40254 11.4704 9.51087 11.5118 9.62754C11.5538 9.7442 11.5748 9.8692 11.5748 10.0025C11.5748 10.1359 11.5538 10.2609 11.5118 10.3775C11.4704 10.4942 11.3998 10.6025 11.2998 10.7025L2.87477 19.1275C2.64143 19.3609 2.34977 19.4775 1.99977 19.4775C1.64977 19.4775 1.34977 19.3525 1.09977 19.1025C0.849769 18.8525 0.724769 18.5609 0.724769 18.2275C0.724769 17.8942 0.849768 17.6025 1.09977 17.3525L8.44977 10.0025L1.09977 2.65254C0.866434 2.4192 0.749767 2.13187 0.749767 1.79054C0.749767 1.44854 0.874767 1.15254 1.12477 0.902537C1.37477 0.652537 1.66643 0.527537 1.99977 0.527537C2.3331 0.527537 2.62477 0.652537 2.87477 0.902537Z" fill="#878787"/>
</svg>
