<svg width="122" height="123" viewBox="0 0 122 123" fill="none" xmlns="http://www.w3.org/2000/svg">
<path d="M40.8834 6.10712C42.9317 2.74772 47.2592 1.58816 50.7128 3.47334C53.4004 4.94039 56.7161 4.59308 59.0406 2.60007C62.0248 0.0414342 66.501 0.285243 69.2011 3.14203C71.3042 5.36711 74.5699 6.06821 77.3972 4.89332C81.0262 3.38528 85.2086 5.00556 86.8959 8.55477C88.211 11.321 91.1026 13.0018 94.156 12.7608C98.0757 12.4515 101.554 15.2846 102.065 19.1831C102.464 22.2222 104.696 24.7146 107.676 25.4317C111.503 26.3524 113.939 30.1169 113.223 33.9875C112.666 37.0039 114.021 40.06 116.635 41.6647C119.994 43.7264 121.154 48.0551 119.276 51.52C117.814 54.2169 118.169 57.5413 120.16 59.8747C122.715 62.8688 122.488 67.3468 119.634 70.0577C117.412 72.1688 116.725 75.4433 117.899 78.2747C119.405 81.9068 117.81 86.0992 114.26 87.7912C111.496 89.1092 109.832 92.0106 110.076 95.0638C110.389 98.9811 107.577 102.476 103.681 102.984C100.645 103.38 98.167 105.62 97.4582 108.599C96.5482 112.423 92.7936 114.872 88.9299 114.148C85.9203 113.585 82.8751 114.942 81.2811 117.556C79.2328 120.915 74.9053 122.075 71.4517 120.19C68.7641 118.723 65.4484 119.07 63.1239 121.063C60.1397 123.622 55.6635 123.378 52.9634 120.521C50.8603 118.296 47.5946 117.595 44.7673 118.77C41.1383 120.278 36.9559 118.658 35.2686 115.108C33.9535 112.342 31.0619 110.661 28.0085 110.902C24.0888 111.212 20.611 108.379 20.0992 104.48C19.7002 101.441 17.4682 98.9485 14.4881 98.2315C10.6611 97.3107 8.2253 93.5463 8.94107 89.6757C9.49887 86.6592 8.14355 83.6031 5.52917 81.9984C2.17028 79.9367 1.01042 75.608 2.88845 72.1431C4.3502 69.4462 3.99591 66.1219 2.00461 63.7885C-0.550553 60.7943 -0.323327 56.3163 2.53056 53.6054C4.75293 51.4944 5.43968 48.2198 4.26564 45.3884C2.75963 41.7563 4.3549 37.5639 7.90415 35.872C10.669 34.554 12.3328 31.6525 12.0886 28.5993C11.7752 24.682 14.5872 21.1876 18.484 20.6791C21.5199 20.2829 23.9975 18.0429 24.7063 15.0644C25.6163 11.2403 29.3709 8.79103 33.2346 9.51478C36.2442 10.0785 39.2894 8.72142 40.8834 6.10712Z" fill="#BDC695"/>
</svg>
