<svg width="28" height="28" viewBox="0 0 28 28" fill="none" xmlns="http://www.w3.org/2000/svg">
<path d="M6.32302 9.20898H0.47229V27.8666H6.32302V9.20898Z" fill="black"/>
<path d="M22.1495 8.80279C21.9338 8.77583 21.7046 8.76235 21.4754 8.74887C18.1996 8.61406 16.3527 10.5553 15.7056 11.3911C15.5303 11.6203 15.4495 11.7551 15.4495 11.7551V9.26114H9.85486V27.9188H15.4495H15.7056C15.7056 26.018 15.7056 24.1306 15.7056 22.2298C15.7056 21.2053 15.7056 20.1807 15.7056 19.1562C15.7056 17.8889 15.6112 16.5409 16.2448 15.3815C16.7841 14.4109 17.7547 13.9255 18.8466 13.9255C22.0821 13.9255 22.1495 16.8509 22.1495 17.1205C22.1495 17.134 22.1495 17.1475 22.1495 17.1475V27.9997H28.0002V15.8264C28.0002 11.6608 25.8837 9.20722 22.1495 8.80279Z" fill="black"/>
<path d="M3.39719 6.79439C5.27341 6.79439 6.7944 5.27342 6.7944 3.3972C6.7944 1.52098 5.27341 0 3.39719 0C1.52097 0 0 1.52098 0 3.3972C0 5.27342 1.52097 6.79439 3.39719 6.79439Z" fill="black"/>
</svg>
