<svg width="26" height="29" viewBox="0 0 26 29" fill="none" xmlns="http://www.w3.org/2000/svg">
<path d="M2.66724 28.4995C1.94501 28.4995 1.34779 28.2634 0.875569 27.7912C0.403347 27.319 0.167236 26.7217 0.167236 25.9995V8.66618C0.167236 7.94396 0.403347 7.34673 0.875569 6.87451C1.34779 6.40229 1.94501 6.16618 2.66724 6.16618H6.8339C6.8339 4.44396 7.43113 2.98562 8.62557 1.79118C9.82001 0.596734 11.2783 -0.000488281 13.0006 -0.000488281C14.7228 -0.000488281 16.1811 0.596734 17.3756 1.79118C18.57 2.98562 19.1672 4.44396 19.1672 6.16618H23.3339C24.0561 6.16618 24.6533 6.40229 25.1256 6.87451C25.5978 7.34673 25.8339 7.94396 25.8339 8.66618V25.9995C25.8339 26.7217 25.5978 27.319 25.1256 27.7912C24.6533 28.2634 24.0561 28.4995 23.3339 28.4995H2.66724ZM2.66724 27.3328H23.3339C23.6672 27.3328 23.9728 27.194 24.2506 26.9162C24.5283 26.6384 24.6672 26.3328 24.6672 25.9995V8.66618C24.6672 8.33285 24.5283 8.02729 24.2506 7.74951C23.9728 7.47173 23.6672 7.33285 23.3339 7.33285H2.66724C2.3339 7.33285 2.02835 7.47173 1.75057 7.74951C1.47279 8.02729 1.3339 8.33285 1.3339 8.66618V25.9995C1.3339 26.3328 1.47279 26.6384 1.75057 26.9162C2.02835 27.194 2.3339 27.3328 2.66724 27.3328ZM13.0006 15.1662C14.7228 15.1662 16.1811 14.569 17.3756 13.3745C18.57 12.1801 19.1672 10.7217 19.1672 8.99951H18.0006C18.0006 10.3884 17.5145 11.569 16.5422 12.5412C15.57 13.5134 14.3895 13.9995 13.0006 13.9995C11.6117 13.9995 10.4311 13.5134 9.4589 12.5412C8.48668 11.569 8.00057 10.3884 8.00057 8.99951H6.8339C6.8339 10.7217 7.43113 12.1801 8.62557 13.3745C9.82001 14.569 11.2783 15.1662 13.0006 15.1662ZM8.00057 6.16618H18.0006C18.0006 4.77729 17.5145 3.59673 16.5422 2.62451C15.57 1.65229 14.3895 1.16618 13.0006 1.16618C11.6117 1.16618 10.4311 1.65229 9.4589 2.62451C8.48668 3.59673 8.00057 4.77729 8.00057 6.16618Z" fill="white"/>
</svg>
