<svg width="28" height="24" viewBox="0 0 28 24" fill="none" xmlns="http://www.w3.org/2000/svg">
<path d="M3.56654 23.3012C2.56654 23.3012 1.72787 22.9621 1.05054 22.2838C0.372314 21.6065 0.0332031 20.7678 0.0332031 19.7678V4.23451C0.0332031 3.23451 0.372314 2.39539 1.05054 1.71717C1.72787 1.03984 2.56654 0.701172 3.56654 0.701172H24.4332C25.4332 0.701172 26.2723 1.03984 26.9505 1.71717C27.6279 2.39539 27.9665 3.23451 27.9665 4.23451V19.7678C27.9665 20.7678 27.6279 21.6065 26.9505 22.2838C26.2723 22.9621 25.4332 23.3012 24.4332 23.3012H3.56654ZM13.9999 14.1345L3.56654 7.46784V19.7678H24.4332V7.46784L13.9999 14.1345ZM13.9999 10.9012L24.4332 4.23451H3.56654L13.9999 10.9012ZM3.56654 7.46784V4.23451V19.7678V7.46784Z" fill="#1C1B1F"/>
</svg>
