<svg width="24" height="24" viewBox="0 0 24 24" fill="none" xmlns="http://www.w3.org/2000/svg">
<path d="M12 10.9585C10.6112 10.9585 9.4306 10.4724 8.45837 9.50016C7.48615 8.52794 7.00004 7.34739 7.00004 5.9585C7.00004 4.59739 7.48615 3.4235 8.45837 2.43683C9.4306 1.45127 10.6112 0.958496 12 0.958496C13.3889 0.958496 14.5695 1.45127 15.5417 2.43683C16.5139 3.4235 17 4.59739 17 5.9585C17 7.34739 16.5139 8.52794 15.5417 9.50016C14.5695 10.4724 13.3889 10.9585 12 10.9585ZM21.9167 23.0418H2.08337C1.58337 23.0418 1.16671 22.8752 0.833374 22.5418C0.500041 22.2085 0.333374 21.7918 0.333374 21.2918V20.2918C0.333374 19.5974 0.535041 18.9513 0.938374 18.3535C1.3406 17.7568 1.87504 17.2918 2.54171 16.9585C4.12504 16.2085 5.70171 15.6457 7.27171 15.2702C8.8406 14.8957 10.4167 14.7085 12 14.7085C13.5834 14.7085 15.16 14.8957 16.73 15.2702C18.2989 15.6457 19.875 16.2085 21.4584 16.9585C22.125 17.2918 22.66 17.7568 23.0634 18.3535C23.4656 18.9513 23.6667 19.5974 23.6667 20.2918V21.2918C23.6667 21.7918 23.5 22.2085 23.1667 22.5418C22.8334 22.8752 22.4167 23.0418 21.9167 23.0418ZM2.00004 21.3752H22V20.2918C22 19.9029 21.8823 19.5485 21.6467 19.2285C21.41 18.9096 21.0834 18.6391 20.6667 18.4168C19.2778 17.7502 17.8545 17.2435 16.3967 16.8968C14.9378 16.5491 13.4723 16.3752 12 16.3752C10.5278 16.3752 9.06282 16.5491 7.60504 16.8968C6.14615 17.2435 4.72226 17.7502 3.33337 18.4168C2.91671 18.6391 2.5906 18.9096 2.35504 19.2285C2.11837 19.5485 2.00004 19.9029 2.00004 20.2918V21.3752ZM12 9.29183C12.9167 9.29183 13.7017 8.96516 14.355 8.31183C15.0073 7.65961 15.3334 6.87516 15.3334 5.9585C15.3334 5.04183 15.0073 4.25738 14.355 3.60516C13.7017 2.95183 12.9167 2.62516 12 2.62516C11.0834 2.62516 10.2989 2.95183 9.64671 3.60516C8.99337 4.25738 8.66671 5.04183 8.66671 5.9585C8.66671 6.87516 8.99337 7.65961 9.64671 8.31183C10.2989 8.96516 11.0834 9.29183 12 9.29183Z" fill="white"/>
</svg>
