<svg width="207" height="211" viewBox="0 0 207 211" fill="none" xmlns="http://www.w3.org/2000/svg">
<g filter="url(#filter0_d_178_362)">
<path d="M85.3168 4.61567C89.1762 -0.0132424 95.9939 -0.796198 100.802 2.83729C104.544 5.66488 109.646 5.88488 113.616 3.38837C118.714 0.183331 125.441 1.56008 128.889 6.49611C131.574 10.3407 136.364 12.1378 140.913 10.994C146.75 9.52588 152.723 12.922 154.48 18.6792C155.85 23.1664 159.853 26.3638 164.534 26.6858C170.542 27.0992 175.174 32.1744 175.072 38.1962C174.992 42.8906 177.813 47.1693 182.167 48.9263C187.758 51.1827 190.601 57.4344 188.646 63.1377C187.122 67.5824 188.488 72.5177 192.088 75.5374C196.713 79.4171 197.496 86.2365 193.871 91.0637C191.049 94.8208 190.838 99.9373 193.329 103.921C196.527 109.032 195.175 115.766 190.241 119.231C186.399 121.929 184.621 126.736 185.763 131.29C187.227 137.132 183.867 143.125 178.108 144.89C173.623 146.265 170.449 150.286 170.132 154.967C169.725 160.973 164.678 165.634 158.66 165.528C153.971 165.445 149.713 168.281 147.968 172.634C145.729 178.224 139.489 181.089 133.798 179.123C129.365 177.592 124.446 178.963 121.443 182.565C117.583 187.194 110.765 187.977 105.957 184.343C102.215 181.516 97.1133 181.296 93.143 183.792C88.0457 186.997 81.3187 185.621 77.8706 180.685C75.1849 176.84 70.3949 175.043 65.8468 176.187C60.009 177.655 54.0368 174.259 52.2791 168.501C50.9091 164.014 46.9063 160.817 42.2257 160.495C36.2173 160.082 31.5857 155.006 31.6876 148.985C31.7671 144.29 28.9463 140.011 24.5924 138.254C19.0012 135.998 16.1579 129.746 18.1135 124.043C19.6375 119.598 18.2718 114.663 14.6718 111.643C10.0467 107.764 9.26355 100.944 12.8888 96.117C15.7104 92.3599 15.9218 87.2434 13.4298 83.2599C10.2323 78.1484 11.5844 71.4149 16.5184 67.9498C20.3606 65.2515 22.1381 60.4447 20.9965 55.8905C19.5321 50.0486 22.8926 44.0556 28.6509 42.2909C33.1366 40.9162 36.3104 36.8946 36.6275 32.2137C37.0343 26.208 42.0812 21.5463 48.0998 21.6529C52.7887 21.7359 57.0467 18.8996 58.7909 14.5463C61.0303 8.95712 67.2701 6.09123 72.9611 8.05731C77.3941 9.58876 82.3134 8.2179 85.3168 4.61567Z" fill="#BDC695"/>
</g>
<defs>
<filter id="filter0_d_178_362" x="0.313875" y="0.553711" width="206.132" height="210.102" filterUnits="userSpaceOnUse" color-interpolation-filters="sRGB">
<feFlood flood-opacity="0" result="BackgroundImageFix"/>
<feColorMatrix in="SourceAlpha" type="matrix" values="0 0 0 0 0 0 0 0 0 0 0 0 0 0 0 0 0 0 127 0" result="hardAlpha"/>
<feOffset dy="13.7306"/>
<feGaussianBlur stdDeviation="5.14899"/>
<feComposite in2="hardAlpha" operator="out"/>
<feColorMatrix type="matrix" values="0 0 0 0 0 0 0 0 0 0 0 0 0 0 0 0 0 0 0.5 0"/>
<feBlend mode="normal" in2="BackgroundImageFix" result="effect1_dropShadow_178_362"/>
<feBlend mode="normal" in="SourceGraphic" in2="effect1_dropShadow_178_362" result="shape"/>
</filter>
</defs>
</svg>
