<svg width="182" height="184" viewBox="0 0 182 184" fill="none" xmlns="http://www.w3.org/2000/svg">
<g filter="url(#filter0_d_178_270)">
<path d="M124.716 9.56635C129.835 8.32528 135.029 11.324 136.513 16.3776C137.669 20.3103 141.136 23.1203 145.223 23.434C150.47 23.8369 154.476 28.3047 154.328 33.5648C154.212 37.6618 156.64 41.4167 160.428 42.9808C165.291 44.9885 167.716 50.4813 165.954 55.4381C164.58 59.3014 165.726 63.6296 168.845 66.2918C172.848 69.7093 173.458 75.6831 170.252 79.8578C167.753 83.1122 167.507 87.5844 169.649 91.084C172.4 95.5782 171.142 101.447 166.801 104.434C163.418 106.761 161.808 110.937 162.763 114.93C163.991 120.061 160.992 125.257 155.934 126.759C151.998 127.928 149.186 131.41 148.862 135.504C148.447 140.757 143.993 144.781 138.725 144.645C134.624 144.54 130.874 146.989 129.305 150.781C127.292 155.645 121.814 158.103 116.853 156.345C112.988 154.975 108.666 156.147 106.008 159.268C102.596 163.273 96.6266 163.919 92.4565 160.712C89.2077 158.213 84.7421 157.988 81.2518 160.136C76.7705 162.895 70.8981 161.659 67.9259 157.317C65.6107 153.934 61.4435 152.336 57.46 153.302C52.3412 154.543 47.1472 151.545 45.6625 146.491C44.5072 142.558 41.0398 139.748 36.9529 139.435C31.7061 139.032 27.6999 134.564 27.8481 129.304C27.9636 125.207 25.536 121.452 21.7476 119.888C16.885 117.88 14.4596 112.387 16.2221 107.43C17.5958 103.567 16.4497 99.239 13.3312 96.5768C9.32802 93.1593 8.71781 87.1855 11.9236 83.0108C14.4227 79.7564 14.6692 75.2842 12.527 71.7845C9.77602 67.2904 11.0337 61.4213 15.3751 58.435C18.7584 56.1077 20.3683 51.9319 19.4126 47.9382C18.1847 42.8071 21.1843 37.6118 26.2418 36.1096C30.1784 34.9404 32.9898 31.4583 33.3136 27.3646C33.7291 22.1117 38.183 18.088 43.4506 18.2233C47.5525 18.3287 51.3022 15.8791 52.8711 12.0876C54.8836 7.22402 60.3621 4.76556 65.3234 6.52367C69.1882 7.89323 73.5095 6.72171 76.1684 3.60042C79.5799 -0.40433 85.5495 -1.05034 89.7195 2.15701C92.9683 4.65579 97.4339 4.8807 100.924 2.7322C105.405 -0.0262603 111.278 1.20936 114.25 5.55177C116.565 8.93423 120.732 10.5322 124.716 9.56635Z" fill="url(#paint0_linear_178_270)"/>
</g>
<defs>
<filter id="filter0_d_178_270" x="0.871216" y="0.117676" width="180.434" height="183.633" filterUnits="userSpaceOnUse" color-interpolation-filters="sRGB">
<feFlood flood-opacity="0" result="BackgroundImageFix"/>
<feColorMatrix in="SourceAlpha" type="matrix" values="0 0 0 0 0 0 0 0 0 0 0 0 0 0 0 0 0 0 127 0" result="hardAlpha"/>
<feOffset dy="12"/>
<feGaussianBlur stdDeviation="4.5"/>
<feComposite in2="hardAlpha" operator="out"/>
<feColorMatrix type="matrix" values="0 0 0 0 0 0 0 0 0 0 0 0 0 0 0 0 0 0 0.5 0"/>
<feBlend mode="normal" in2="BackgroundImageFix" result="effect1_dropShadow_178_270"/>
<feBlend mode="normal" in="SourceGraphic" in2="effect1_dropShadow_178_270" result="shape"/>
</filter>
<linearGradient id="paint0_linear_178_270" x1="151.797" y1="37.3887" x2="44.7969" y2="151.889" gradientUnits="userSpaceOnUse">
<stop stop-color="#F49B24"/>
<stop offset="1" stop-color="#F3C78B"/>
</linearGradient>
</defs>
</svg>
